<svg xmlns="http://www.w3.org/2000/svg" viewBox="0 0 24 24"><title>Description</title><path fill-rule="evenodd" d="M13.17 2c.53 0 1.04.21 1.42.59l4.82 4.83c.38.37.59.88.59 1.41V20c0 1.1-.9 2-2 2H5.99C4.89 22 4 21.1 4 20V4c0-1.1.9-2 2-2h7.17ZM9 18h6c.55 0 1-.45 1-1s-.45-1-1-1H9c-.55 0-1 .45-1 1s.45 1 1 1Zm6-4H9c-.55 0-1-.45-1-1s.45-1 1-1h6c.55 0 1 .45 1 1s-.45 1-1 1ZM13 3.5V8c0 .55.45 1 1 1h4.5L13 3.5Z"></path><metadata>article, data, description, doc, document, drive, file, folder, folders, notes, page, paper, sheet, slide, text, writing</metadata></svg>